<svg width="17" height="12" viewBox="0 0 17 12" fill="none" xmlns="http://www.w3.org/2000/svg">
<path d="M4.63636 7.2C5.91909 7.2 6.95455 6.128 6.95455 4.8C6.95455 3.472 5.91909 2.4 4.63636 2.4C3.35364 2.4 2.31818 3.472 2.31818 4.8C2.31818 6.128 3.35364 7.2 4.63636 7.2ZM4.63636 4C5.06136 4 5.40909 4.36 5.40909 4.8C5.40909 5.24 5.06136 5.6 4.63636 5.6C4.21136 5.6 3.86364 5.24 3.86364 4.8C3.86364 4.36 4.21136 4 4.63636 4ZM13.9091 1.6H7.72727V8H1.54545V0H0V12H1.54545V9.6H15.4545V12H17V4.8C17 3.032 15.6168 1.6 13.9091 1.6ZM15.4545 8H9.27273V3.2H13.9091C14.7591 3.2 15.4545 3.92 15.4545 4.8V8Z" fill="#1BA7E0"/>
</svg>
