<svg width="23" height="23" viewBox="0 0 23 23" fill="none" xmlns="http://www.w3.org/2000/svg">
<path d="M9.66668 19C11.7375 18.9996 13.7486 18.3063 15.3798 17.0306L20.5085 22.1593L22.1582 20.5096L17.0295 15.381C18.3058 13.7496 18.9995 11.738 19 9.66665C19 4.52048 14.8128 0.333313 9.66668 0.333313C4.52051 0.333313 0.333344 4.52048 0.333344 9.66665C0.333344 14.8128 4.52051 19 9.66668 19ZM9.66668 2.66665C13.5272 2.66665 16.6667 5.80615 16.6667 9.66665C16.6667 13.5271 13.5272 16.6666 9.66668 16.6666C5.80618 16.6666 2.66668 13.5271 2.66668 9.66665C2.66668 5.80615 5.80618 2.66665 9.66668 2.66665Z" fill="white"/>
</svg>
